<svg width="512" height="512" viewBox="0 0 512 512" fill="black" xmlns="http://www.w3.org/2000/svg">
<path d="M234.5 0C236.67 1.66 240.46 1.11 243.12 1.63C258.8 4.71 269.53 16.15 286.26 17.49C308.56 19.28 317.04 7.62 335.9 3.65C358.16 -1.04 382.03 5.59 398.28 21.47C408.63 31.59 412.73 44.87 425.84 52.91C447.61 66.26 470.48 56.38 491.26 75.48C515.12 97.4 517.47 133.6 495.51 157.77L156.76 496.51C145.78 506.19 137.86 508.49 123.76 511.01C122.89 511.17 122.01 511.07 121.5 512H114.5C110.55 510.39 106.02 510.46 101.89 509.36C84.7198 504.75 69.5898 490.69 63.8598 473.89C58.5198 458.22 62.6198 444.59 53.3898 428.86C44.1198 413.05 28.9998 409.05 17.7298 396.02C0.659786 376.28 -3.17021 348.15 6.88979 324.17C13.1798 309.16 17.8998 304.3 16.4998 286.25C15.5298 273.67 8.61979 265.93 4.88979 254.86C-2.13021 234.02 1.36979 209.55 14.4898 191.9C27.6098 174.25 48.5798 171.07 57.3498 146.64C61.4298 135.29 59.8098 124.39 62.6198 112.91C68.7398 87.91 90.4698 67.27 115.85 62.64C125.93 60.8 135.04 61.95 145.24 58.53C170.28 50.13 173.24 26.84 192.02 12.81C201.23 5.93 210.44 2.69 221.73 1.02C222.62 0.89 223.61 1.26 223.98 0.01H234.48L234.5 0ZM482.29 86.72C465.11 72.16 448.87 78.27 429.5 70.74C409.07 62.8 405.25 53.02 392.98 37.26C381.33 22.29 361.65 14.37 342.8 17.06C329.71 18.93 320.48 26.81 308.1 29.86C297.34 32.51 286.29 32.73 275.49 30.26C255.27 25.64 246.63 11.69 222.88 15.14C191.51 19.7 189.7 44.8 168.73 61.49C151.25 75.4 140.76 73.6 120.3 76.56C97.2198 79.91 78.5698 99.38 75.5598 122.32C72.7998 143.31 73.2398 155.57 58.4698 172.73C49.5298 183.12 37.0698 187.68 28.2298 197.99C15.0898 213.31 12.1398 234.85 19.7498 253.48C26.7698 270.65 32.4498 277.25 31.0098 297.76C29.2598 322.62 11.2098 333.97 16.6198 362.12C22.4598 392.57 46.1098 394.63 61.4798 415.26C67.1798 422.92 71.9398 433.07 73.7598 442.48C75.0098 448.93 74.5898 455.33 75.5498 461.69C79.7898 489.8 111.4 505.11 136.68 492.94C146.45 488.23 156.94 475.91 164.73 467.99C166.55 466.14 168.83 464.39 170.46 462.19C170.64 461.18 162.31 455.63 160.89 454.48C147.41 443.5 128.51 424.93 119.51 410.13C117.23 406.38 116.16 402.04 120.24 399C128.43 392.9 133.88 405.53 138.01 410.73C148.05 423.35 160.87 436.93 173.88 446.48C175.33 447.55 180.59 451.4 181.97 450.77L450.26 182.51C450.86 181.18 438.23 165.88 436.47 163.9C405.4 129 366.25 108.43 320.17 100.58C314.16 99.56 303.46 100.72 302.73 92.52C302.17 86.21 307.7 84.73 312.75 85C366.09 87.83 421.57 122.34 454.48 162.89C455.73 164.43 460.11 171.52 461.75 171.5C475.22 155.24 495.1 144.76 496.5 121.24C497.2 109.47 491.32 94.36 482.3 86.72H482.29Z" />
<path d="M172.71 138.71C106.97 189.47 80.57 277.7 108.49 356.76C110.21 361.63 116.77 374.54 117.03 378.23C117.55 385.66 108.77 388.83 104.49 383.76C101.75 380.51 96.77 366.77 95.11 362.14C60.65 265.39 102.1 158.06 191.48 109.25C215.29 96.25 247.54 85.94 274.75 84.52C281.43 84.17 289.32 84.32 287.38 93.65C286.08 99.91 277.87 98.47 273.25 99.02C235.67 103.51 202.68 115.58 172.71 138.72V138.71Z" />
<path d="M253.28 251.29C247.7 258.1 235.18 263.32 226.39 261.36C219.53 259.83 220.16 248.6 226.78 247.53C233.4 246.46 237.24 247.58 242.26 242.01C246.53 237.26 245.72 233.89 246.55 228.3C247.67 220.7 258.26 220.64 260.37 226.9C262.88 234.35 258.04 245.51 253.29 251.3L253.28 251.29Z" />
<path d="M109.86 105.62C111.92 105.2 114.22 105.63 115.97 106.78C117.82 107.99 131.95 122.15 133.21 124.04C137.8 130.92 130.1 139.03 122.53 133.72C120.1 132.02 107.98 119.89 106.28 117.47C103.27 113.17 104.35 106.74 109.86 105.62Z" />
<path d="M131.33 449.68C135.23 452.06 135.42 457.06 132.77 460.51C130.83 463.03 117.99 475.98 115.67 477.41C108.72 481.71 100.69 473.68 106.75 465.99C109.11 463 119.62 452.32 122.54 450.28C125.46 448.24 128.23 447.78 131.33 449.68Z" />
<path d="M475.32 118.32C473.07 120.83 460.77 133.15 458.62 134.37C454.71 136.58 449.88 135.19 448.25 130.99C446.87 127.45 447.81 125.61 450.01 122.76C452.64 119.35 461.08 111.01 464.49 108.24C473.75 100.74 482 110.84 475.32 118.32Z" />
<path d="M361.83 41.67C363.24 43.1 364.08 46.13 363.86 48.11C363.42 52.01 358.55 69.92 356.66 72.87C353.07 78.49 343.59 75.38 343.98 67.23C344.16 63.54 348.58 48.16 350.11 44.35C351.97 39.73 358.41 38.2 361.84 41.66L361.83 41.67Z" />
<path d="M72.34 226.66C77.1 230.71 73.89 239.77 67.26 239.53L41.91 232.45C36.69 228.27 38.73 219.46 45.82 219.18C48.66 219.07 60.62 222.62 64.1 223.65C66.28 224.29 70.73 225.3 72.34 226.67V226.66Z" />
<path d="M230.33 41.67C230.99 42.28 232.04 43.98 232.38 44.87C233.74 48.43 238.19 64.5 238.33 67.81C238.66 75.85 228.01 78.68 224.56 71.19C221.45 64.42 220.49 53.99 218.09 46.73C218.59 40.66 225.84 37.51 230.33 41.67Z" />
<path d="M72.3501 357.34C71.6001 357.97 69.4201 358.78 68.4001 359.14C64.8201 360.4 49.3001 364.89 46.2601 364.89C38.1301 364.9 36.0701 353.91 43.6601 350.89C50.6601 348.1 59.9901 347.15 67.2601 344.58C73.7901 344.55 77.3101 353.16 72.3601 357.33L72.3501 357.34Z" />
<path d="M190.3 275.71C192.3 277.22 200.46 285.81 200.88 287.86C201.96 293.05 197.42 298.22 192.08 296.66C191.16 296.39 189.05 295.12 188.25 294.5C186.62 293.25 180.81 287.35 179.59 285.69C177.03 282.2 176.43 278.34 179.99 275.24C183.55 272.14 186.96 273.19 190.31 275.72L190.3 275.71Z" />
<path d="M277.86 178.62C280.33 178.11 282.46 178.88 284.47 180.28C286.48 181.68 294.79 190.24 295.47 192.27C297.64 198.76 291.18 204.22 285.15 201.09C283.9 200.44 274.69 191.32 273.78 189.96C271.11 185.95 272.82 179.65 277.86 178.61V178.62Z" />
</svg>
