<svg width="512" height="512" viewBox="0 0 512 512" fill="none" xmlns="http://www.w3.org/2000/svg">
<g clip-path="url(#clip0_22_44)">
<path d="M330.5 0C331.87 1.33 333.9 0.83 335.61 1.14C348 3.37 358.67 8.6 368.81 15.85C413.86 7.7 455.55 33.1 463.86 78.89C465.22 86.39 465.2 94.04 465.24 101.51C488.01 110.21 504.3 129.26 509.74 153C510.63 156.87 510.7 160.9 511.99 164.5V181C510.68 184.71 510.69 188.78 509.85 192.61C504.39 217.51 483.78 244.49 468.89 265.15C408.84 348.47 333.18 422.61 248.44 480.7C229.47 493.7 210.05 507.57 186.68 510.94C184.8 511.21 182.55 510.52 180.99 512H164.49C161.95 510.68 158.75 510.93 155.89 510.35C130.67 505.24 110.79 489.39 101.5 465.25C99.6 464.47 97.7 465.54 95.74 465.55C42.09 465.66 6.19998 420.89 15.71 368.44C8.44998 358.65 3.26998 347.72 1.11998 335.61C0.81998 333.9 1.30998 331.87 -0.0200195 330.5V314C1.26998 310.58 1.35998 306.67 2.22998 303C11.66 262.89 40.33 251.36 70.44 229.71C130.84 186.28 186.24 130.85 229.69 70.46C251.35 40.36 262.88 11.68 302.98 2.25C306.65 1.39 310.56 1.29 313.98 0H330.48L330.5 0ZM348.5 21.99C348.7 20.81 347.77 20.67 347 20.25C334.61 13.53 315.05 14.07 301.9 18.14C270.55 27.82 259.53 54.65 241.92 79.16C197.14 141.45 141.45 197.13 79.17 241.91C54.54 259.62 27.59 270.68 18.04 302.28C14.25 314.83 13.53 335.77 20.41 347.35C20.81 348.03 21 348.7 22 348.5C28.96 330.76 41.49 316.15 56.85 305.09C68.98 296.36 81.97 288.63 94.16 279.9C166.89 227.86 230.27 163.73 282.24 90.98C288.74 85.27 297.79 92.71 293.92 100.16C241.41 174.05 176.87 239.13 103.16 291.9C73.26 313.3 42.24 325.68 32.04 364.78C20.2 410.19 47.02 448.79 94.27 449.97C95.2 449.99 96.14 450.48 96.8 450.47C99.03 450.43 97.1 444.49 97.01 442.74C95.55 414.98 108.01 387.43 128.9 369.52C131.43 367.36 141.6 359.52 144.27 359.01C147.94 358.32 151.59 359.63 153.1 363.14C156.56 371.19 147.51 373.98 142.54 377.78C99.41 410.78 99.81 484.89 159.88 495.85C197.14 502.65 227.85 477.33 256.15 456.89C332.49 401.77 401.55 332.76 456.7 256.44C470.84 236.87 491.65 209.85 495.86 186.1C503.54 142.81 474.16 107.17 429.31 112.55C386.3 117.7 373.2 151.28 350.91 182.15C309.27 239.79 258.62 292.15 202.45 335.69C195.23 341.28 186.26 348.7 178.66 353.4C175.38 355.43 173 357.2 168.97 355.27C164.23 353 163.86 347.09 166.99 343.23C235.35 294.81 295.39 234.91 343.7 166.44C354.98 150.45 364.92 131.17 379.89 118.51C396.9 104.13 419.86 95.87 442.24 96.99C443.66 97.06 449.61 98.49 450.27 97.51C451.18 63.83 430.44 34.93 396.18 30.04C359.29 24.78 326.89 45.93 309.47 77.21C304.35 81.13 297.08 78.38 296.95 71.73C296.88 68.19 302.81 60.02 305.08 56.82C315.97 41.47 330.89 28.92 348.49 21.97L348.5 21.99Z" fill="white"/>
<path d="M113.72 320.71C117.02 317.15 121.94 313.36 126.17 310.92C145.32 299.84 165.33 306.99 180.5 286.75C196.07 265.97 189.55 243.06 211.75 223C236.73 200.42 273.41 211.83 287.89 173.14C290.96 164.94 291.74 156.27 294.16 147.91C300.22 126.96 316.19 109.3 336.91 102.16C341.95 100.42 354.23 97.12 359.15 98.13C366.03 99.54 366.42 110.92 358.15 112.9C341.28 116.94 330.53 117.83 318.81 132.56C300.78 155.22 309.77 182.31 284.27 204.52C258.77 226.73 220.48 215.84 208.25 256.5C202.42 275.86 200.33 290.56 184.01 304.76C161.8 324.1 133.58 311.26 117.74 340.49C114.23 346.98 114.1 351.4 112.27 358.02C109.87 366.75 98.1802 365.41 97.4902 357.24C96.5502 346.14 106.33 328.67 113.71 320.7L113.72 320.71Z" fill="white"/>
<path d="M318.36 290.12C330.69 287.56 328.73 302.85 325.88 310.13C321.38 321.65 308.13 329.71 295.73 328.02C289.87 327.22 287.71 318.4 292.53 314.78C295.89 312.26 298.66 313.52 302.13 312.88C305.91 312.19 310.4 308.15 311.89 304.64C313.82 300.06 311.68 291.51 318.37 290.12H318.36Z" fill="white"/>
<path d="M254.86 337.62C257.4 337.16 259.4 337.84 261.46 339.28C263.33 340.59 270.45 347.93 271.4 349.84C274.75 356.59 268.15 363.5 261.34 359.9C259.16 358.74 250.48 350.29 249.57 348.17C247.67 343.74 250.02 338.5 254.86 337.62Z" fill="white"/>
<path d="M343.37 249.12C345.7 248.74 347.04 248.99 348.97 250.28C350.29 251.16 359.2 260.09 359.93 261.32C363.69 267.73 356.42 275.05 349.74 271.51C347.88 270.53 339.46 262.09 338.49 260.26C336.15 255.84 338.27 249.95 343.37 249.12Z" fill="white"/>
</g>
<defs>
<clipPath id="clip0_22_44">
<rect width="512" height="512" fill="white"/>
</clipPath>
</defs>
</svg>
