<svg width="1198" height="1123" viewBox="0 0 1198 1123" fill="none" xmlns="http://www.w3.org/2000/svg" xmlns:xlink="http://www.w3.org/1999/xlink">
<rect width="1198" height="1123" fill="url(#pattern0_145_4)" style="mix-blend-mode:soft-light"/>
<defs>
<pattern id="pattern0_145_4" patternUnits="userSpaceOnUse" patternTransform="matrix(303.123 0 0 761.389 0 0)" preserveAspectRatio="none" viewBox="0 0 1443.44 3625.66" width="1" height="1">
<use xlink:href="#pattern0_145_4_inner" transform="translate(0 -3625.66)"/>
<use xlink:href="#pattern0_145_4_inner" transform="translate(721.722 -1812.83)"/>
<g id="pattern0_145_4_inner">
<g clip-path="url(#clip0_145_4)">
<path d="M644.527 3204.63C651.026 3220.67 647.115 3233.79 632.276 3243.3L552.601 3281.76L574.13 3307.42C577.867 3311.87 580.571 3323.37 580.697 3329.29C581.573 3368.06 531.311 3384.91 508.664 3353.86L278.002 3519.84C266.023 3528.03 251.871 3527.09 240.08 3519.18L89.6763 3339.94C84.1294 3327.29 85.3275 3313.59 94.8282 3303.12C143.339 3259.23 187.721 3208.86 235.966 3164.98C238.382 3162.78 241.119 3159.84 244.257 3159.25C251.253 3157.92 255.78 3166.65 250.876 3171.97L106.618 3312.67C101.578 3317.49 99.7175 3324.25 102.442 3330.76L249.998 3507.29C255.716 3511.7 263.121 3511.87 269.123 3507.74L499.021 3342.39L308.756 3115.64L271.942 3151.75C259.681 3156.14 255.629 3143.82 265.435 3136.34L299.114 3104.15C264.026 3063.64 320.103 3011.9 358.138 3049.99L515.307 3237.15L609.734 3192.33C619.545 3188.9 628.696 3190.97 637.427 3196.21L644.498 3204.64L644.527 3204.63ZM542.317 3269.51L625.658 3229.58C638.752 3221.62 631.668 3202.97 616.365 3206L525.604 3249.59L542.317 3269.51ZM345.355 3058.51C323.106 3039.23 292.22 3064.82 307.075 3090.28L523.703 3348.45C546.751 3367.99 578.12 3340.24 560.711 3314.76L345.355 3058.51Z" fill="black"/>
<path d="M379.814 3329.8C389.526 3338.33 390.541 3355.07 380.033 3363.44C375.068 3367.39 367.68 3365.08 367.366 3358.17C367.094 3352.31 376.579 3348.82 370.976 3342.13C365.302 3335.36 359.366 3344.36 353.851 3342.71C347.147 3340.69 347.214 3332.35 352.171 3328.59C359.701 3322.9 372.774 3323.63 379.806 3329.79L379.814 3329.8Z" fill="black"/>
<path d="M295.609 3229.45C305.155 3237.82 306.255 3255 296.209 3263.27C291.578 3267.08 283.232 3264.69 283.161 3257.82C283.106 3252.61 292.324 3248.39 286.779 3241.78C280.96 3234.85 275.583 3244.27 269.658 3242.33C263.457 3240.29 262.812 3233.18 267.375 3229.16C274.881 3222.54 288.139 3222.89 295.628 3229.45L295.609 3229.45Z" fill="black"/>
<path d="M303.881 3289.05C311.659 3294.15 302.503 3304.91 315.455 3310.91C320.258 3313.13 326.382 3310.84 327.651 3318.52C328.81 3325.5 321.86 3327.59 316.193 3326.7C302.458 3324.57 292.707 3312.92 292.467 3299.11C292.356 3292.49 297.311 3284.74 303.862 3289.05L303.881 3289.05Z" fill="black"/>
</g>
<g clip-path="url(#clip1_145_4)">
<path d="M263.519 2395.99L282.507 2387.88C347.841 2364.55 423.09 2383.26 470.464 2434.12C508.621 2482.83 553.137 2528.46 590.691 2577.4C608.417 2600.5 620.891 2630.81 624.873 2659.53C625.318 2662.72 626.419 2670.66 626.179 2673.49C625.48 2682.13 614.317 2684.04 610.979 2675.71C609.728 2672.57 609.775 2664.24 609.163 2660.29C604.853 2632.55 593.598 2606.48 576.232 2584.3C536.224 2539.46 499.995 2489.41 459.152 2445.61C424.687 2408.65 376.475 2389.78 326.291 2394.33C310.657 2395.75 288.618 2400.62 274.707 2407.91C262.961 2414.05 261.227 2427.06 269.282 2437.13C365.378 2550.94 460.218 2665.95 557.034 2779.06C567.024 2785.77 577.224 2783.26 583.989 2773.43C592.82 2760.6 600.788 2742.7 604.982 2727.71C606.457 2722.45 607.04 2716.52 608.445 2711.33C611.808 2698.93 625.203 2702.24 624.221 2713.07C622.536 2731.59 610.951 2759.84 601.129 2775.64L592.612 2788.2L586.484 2793.34C572.641 2801.07 555.368 2800.06 544.172 2788.16L543.097 2788.03C541.708 2789.14 541.293 2790.64 539.966 2791.94C533.88 2797.89 522.725 2807.26 515.805 2812.21C513.246 2814.03 510.619 2814.52 508.014 2816.07C512.293 2828.09 512.225 2841.94 506.864 2853.64C504.467 2858.89 500.955 2863.24 497.615 2867.91L480.379 2882.38C476.496 2883.77 473.043 2885.99 469.117 2887.38C459.304 2890.83 447.671 2890.74 437.86 2887.35C437.294 2887.74 437.203 2887.8 437.112 2888.44C436.924 2889.77 437.661 2893.03 437.599 2894.79C437.335 2903.08 434.892 2912.5 430.774 2919.75C428.66 2923.46 425.715 2926.29 423.684 2929.95L390.744 2957.59C387.852 2958.36 385.27 2960.37 382.404 2961.65C363.462 2970.13 339.195 2965.42 324.432 2950.89L100.581 2683.94C96.8634 2675.33 107.119 2668.85 113.578 2675.5L333.739 2937.88C348.419 2953.37 369.093 2954.05 385.951 2941.39C409.252 2923.89 434.709 2903 415.099 2872.22L317.045 2755.41C315.554 2754.2 300.118 2755.23 296.846 2755.06C262.931 2753.45 240.44 2726.24 244.806 2692.64C245.627 2686.34 247.599 2680.1 248.231 2673.78L149.285 2555.47C122.184 2531.94 97.8179 2553.26 76.7519 2572.89C67.3554 2581.63 61.9902 2592.82 63.312 2605.78C65.0857 2623.23 79.691 2633.08 89.1892 2646.37C94.9694 2654.46 88.3723 2662.61 79.5731 2658.69C70.0906 2646.59 56.1484 2634.85 50.7982 2620.3C45.465 2605.81 47.0312 2588.56 54.7566 2575.22C56.8467 2571.61 59.6132 2568.87 61.6461 2565.35L94.586 2537.71C98.5454 2536.35 101.829 2533.95 105.866 2532.5C113.713 2529.71 123.42 2528.94 131.628 2530.12C133.367 2530.37 136.455 2531.65 137.8 2531.7C138.436 2531.73 138.522 2531.64 138.998 2531.15C137.334 2520.64 139.404 2508.91 144.774 2499.69C146.804 2496.21 149.35 2493.55 151.281 2490.14L168.517 2475.68C173.68 2473.13 178.566 2470.51 184.18 2469.05C196.636 2465.82 210.289 2468.13 221.378 2474.44C223.354 2472.14 224.282 2469.64 226.534 2467.44C232.599 2461.47 243.767 2452.12 250.695 2447.16C252.073 2446.18 255.823 2445.42 255.131 2443.68C254.404 2441.85 252.388 2439.49 251.4 2437.32C245.907 2425.14 249.249 2411.28 257.386 2401.11L263.514 2395.97L263.519 2395.99ZM270.61 2463.01C267.677 2460.34 264.65 2457.95 260.601 2459.76C256.553 2461.58 242.04 2474.13 238.423 2477.73C233.486 2482.65 235.458 2487.46 240.064 2491.68L496.852 2797.77C499.971 2801.15 503.595 2801.59 507.39 2799.02C511.805 2796.02 525.844 2784.52 528.911 2780.69C532.171 2776.61 529.835 2772.64 527.406 2768.85L270.608 2463.03L270.61 2463.01ZM252.036 2653L270.623 2552.59L269.69 2551.09C253.836 2534.02 240.027 2513.44 224.016 2496.7C203.756 2475.55 180.402 2480.91 162.231 2501.93C153.671 2511.83 150.438 2531.9 159.321 2542.49L252.043 2652.99L252.036 2653ZM425.845 2737.23L284.753 2569.09L283.659 2569.34L260.251 2695.07C257.17 2718.93 273.517 2738.4 297.507 2739.47L425.394 2738.25L425.832 2737.22L425.845 2737.23ZM337.527 2754.88L430.249 2865.38C439.132 2875.97 459.493 2876.25 470.697 2869.56C494.551 2855.32 503.9 2833.24 486.574 2809.62C472.882 2790.96 455.015 2773.77 440.946 2755.2L439.63 2754.02L337.519 2754.89L337.527 2754.88Z" fill="black"/>
<path d="M475.173 2526.34C482.15 2532.99 495.328 2548.77 500.81 2556.77C510.076 2570.28 495.351 2581.03 485.354 2588.45C471.766 2598.54 454.529 2600.68 440.915 2589.32C423.252 2574.59 425.831 2551.28 441.618 2536.33C450.464 2527.96 463.582 2515.29 475.171 2526.35L475.173 2526.34ZM465.246 2538.39L464.189 2538.29L448.102 2551.79C447.329 2552.44 445.545 2556.68 445.138 2557.92C441.145 2570.46 451.634 2582.98 464.686 2581.22C465.978 2581.05 470.462 2580.01 471.236 2579.36L487.323 2565.86L487.416 2564.81L465.239 2538.38L465.246 2538.39Z" fill="black"/>
<path d="M433.679 2468.39C442.024 2478.15 441.295 2494.67 431.446 2503.16C426.641 2507.3 418.82 2505.49 417.99 2498.76C417.305 2493.2 422.841 2491.26 423.652 2486.12C424.541 2480.59 420.706 2475.66 415.021 2475.42C409.702 2475.19 406.591 2480.74 400.893 2478.7C394.774 2476.51 394.448 2468.64 399.239 2464.82C409.278 2456.84 425.359 2458.66 433.658 2468.38L433.679 2468.39Z" fill="black"/>
<path d="M546.328 2609.53C549.031 2611.9 550.228 2615.91 548.469 2619.13C546.71 2622.36 536.378 2631.09 532.949 2632.48C526.457 2635.12 520.037 2628.59 522.617 2622.55C523.964 2619.41 532.524 2612.34 535.61 2610.17C538.696 2608 543.044 2606.66 546.321 2609.52L546.328 2609.53Z" fill="black"/>
<path d="M362.556 2464.75C355.888 2464.45 352.8 2456.34 357.46 2451.59C361.784 2447.2 368.351 2441.35 373.865 2447.36C380.247 2454.33 368.955 2465.03 362.556 2464.75Z" fill="black"/>
<path d="M542.112 2678.73C542.944 2672.38 555.445 2663.12 561.199 2670.61C566.162 2677.09 559.261 2682.54 554.178 2686.03C548.748 2689.77 541.252 2685.31 542.112 2678.73Z" fill="black"/>
<path d="M338.33 2431.64C344.809 2437.9 337.31 2444.76 331.882 2448.31C324.647 2453.03 315.352 2443.26 323.083 2435.45C326.938 2431.55 333.284 2426.76 338.336 2431.65L338.33 2431.64Z" fill="black"/>
<path d="M569.412 2707.04C575.337 2712.82 569.171 2719.19 564.109 2722.7C555.079 2728.96 547.071 2718.11 552.982 2711.8C556.998 2707.52 563.939 2701.68 569.412 2707.04Z" fill="black"/>
<path d="M535.054 2697.98C541.577 2703.83 535.098 2710.79 529.701 2714.3C520.902 2720.04 512.961 2709.47 519.341 2702.83C523.12 2698.9 529.762 2693.25 535.04 2697.98L535.054 2697.98Z" fill="black"/>
<path d="M340.931 2466.65C347.37 2472.64 340.113 2479.49 334.875 2482.97C327.135 2488.12 317.757 2478.41 326.033 2470.13C329.915 2466.25 335.904 2461.97 340.931 2466.65Z" fill="black"/>
<path d="M197.576 2535.89C200.189 2539 204.831 2539.41 207.945 2536.79C211.059 2534.18 211.465 2529.54 208.852 2526.42C206.239 2523.31 201.597 2522.9 198.483 2525.52C195.369 2528.13 194.963 2532.77 197.576 2535.89Z" fill="black"/>
<path d="M229.039 2602.52C231.649 2605.63 236.285 2606.04 239.394 2603.43C242.504 2600.82 242.909 2596.18 240.3 2593.07C237.691 2589.96 233.055 2589.56 229.945 2592.17C226.836 2594.78 226.43 2599.41 229.039 2602.52Z" fill="black"/>
<path d="M421.912 2787.14C424.539 2790.27 429.206 2790.68 432.337 2788.05C435.468 2785.42 435.876 2780.75 433.249 2777.62C430.622 2774.49 425.955 2774.08 422.824 2776.71C419.693 2779.34 419.285 2784.01 421.912 2787.14Z" fill="black"/>
<path d="M441.047 2847.67C443.664 2850.79 448.312 2851.19 451.431 2848.58C454.549 2845.96 454.955 2841.31 452.339 2838.19C449.723 2835.08 445.074 2834.67 441.956 2837.29C438.838 2839.9 438.431 2844.55 441.047 2847.67Z" fill="black"/>
</g>
<g clip-path="url(#clip2_145_4)">
<path d="M94.4464 2106.8L92.2727 2098.63C89.9217 2078.2 112.321 2065.81 128.803 2077.34C131.777 2067.59 134.042 2057.52 139.644 2048.83C145.573 2039.64 159.164 2027.08 168.163 2020.77C177.964 2013.89 185.706 2024.38 179.717 2030.68C173.393 2037.33 164.447 2042.64 157.908 2049.71C147.062 2061.48 144.967 2076.02 141.037 2090.83L145.211 2096.42C146.181 2097.02 155.747 2092.43 157.687 2091.75C172.514 2086.57 190.521 2084.23 206.145 2085.51C220.239 2086.68 233.795 2090.59 246.734 2096.19C256.793 2087.1 270.948 2083.92 283.045 2090.87C298.55 2099.76 302.215 2118.97 292.766 2133.58C298.597 2143.44 313.126 2146.78 322.989 2141.38C325.912 2139.77 328.5 2136.64 331.973 2136.04C337.73 2135.07 342.462 2141.92 339.549 2146.89C337.263 2150.8 329.179 2155.16 324.845 2156.75C309.013 2162.56 291.293 2156.59 280.93 2143.53C267.727 2148.31 253.407 2145.43 244.892 2133.64C239.721 2126.46 238.638 2118.31 239.761 2109.77C216.836 2098.8 188.824 2097.22 164.675 2105.18C163.52 2105.56 157.075 2107.92 156.574 2108.28C156.232 2108.55 155.931 2109.31 156.13 2109.55L258.333 2231.35C270.586 2230.44 283.966 2230.76 295.381 2225.71C300.255 2223.56 304.147 2220.68 308.506 2217.68L423.217 2121.38C422.841 2120.66 422.347 2120.78 421.687 2120.7C407.154 2118.87 384.202 2124.27 370.53 2129.4C367.315 2130.61 362.744 2133.61 359.504 2133.73C353.023 2133.97 349.494 2126.28 353.436 2121.47C355.103 2119.44 362.544 2116.42 365.376 2115.29C385.596 2107.12 408.305 2104.42 429.861 2106.29L439.191 2107.55L495.418 2060.94C505.208 2058.25 509.226 2069.28 501.661 2075.18C436.998 2128.49 374.009 2184.07 308.336 2236C296.533 2243.22 283.6 2244.59 270.209 2245.86C278.703 2264.15 262.616 2283.98 242.897 2278.13L235.223 2274.57L94.4528 2106.81L94.4464 2106.8ZM277.86 2127.42C283.934 2122.32 284.727 2113.26 279.63 2107.19C274.532 2101.12 265.474 2100.32 259.399 2105.42C253.324 2110.52 252.532 2119.58 257.629 2125.65C262.726 2131.73 271.785 2132.52 277.86 2127.42ZM119.884 2089.87C112.295 2083.8 103.202 2093.05 108.962 2100.8L243.652 2261.31C251.259 2268.89 261.81 2259.68 255.556 2251.33L119.884 2089.87Z" fill="black"/>
<path d="M536.477 1837.06C543.857 1848.36 543.083 1869.38 532.328 1878.4L504.75 1901.54L504.658 1902.6L574.722 1986.1C577.299 1989.17 578.891 1995.97 578.848 1999.95C578.684 2016.18 561.192 2026.91 546.558 2020.08C545.575 2019.63 542.683 2017.39 542.14 2017.68C539.785 2024.07 538.562 2031.48 535.817 2037.7C534.34 2041.04 530.466 2048.15 527.605 2050.11C521.618 2054.21 514.091 2047.59 517.175 2040.33C519.446 2034.97 522.405 2031.09 524.422 2024.99C525.872 2020.59 529.359 2009.37 529.757 2005.23C529.83 2004.47 530.103 2003.79 529.576 2003.08L412.257 1863.64C405.184 1864.16 397.87 1864.28 390.819 1865.28C379.713 1866.87 371.865 1870.17 362.819 1877.02L202.762 2010.84C193.573 2012.43 190.058 2002.46 196.874 1996.68C252.332 1951.07 306.142 1903.22 362.621 1859C374.572 1851.8 387.214 1850.42 400.742 1849.14C400.021 1846.43 398.996 1844.35 398.565 1841.49C395.293 1819.82 424.408 1806.93 437.502 1822.54L457.75 1846.67L458.806 1846.76L485.986 1823.95C489.663 1820.87 497.999 1818.4 502.831 1818.02C512.071 1817.3 520.604 1821.18 527.799 1826.72C530.267 1830.24 534.18 1833.55 536.477 1837.06ZM494.534 1890.53L522.686 1866.91C523.146 1866.53 525.733 1861.05 526.007 1860.1C529.536 1847.6 516.625 1832.1 503.656 1833C502.249 1833.1 496.898 1834.39 496.017 1835.13L467.865 1858.75L494.541 1890.54L494.534 1890.53ZM563.856 1999.88C563.968 1997.79 562.84 1995.51 561.638 1993.83L427.591 1834.08C421.635 1827.27 411.802 1832.25 413.694 1841.05L552.356 2006.3C557.248 2008.63 563.55 2005.49 563.842 1999.88L563.856 1999.88Z" fill="black"/>
<path d="M429.304 2004.43C428.712 2011.85 418.143 2019.8 412.401 2024.1C378.523 2049.47 344.459 2005.18 370.909 1979.27C374.728 1975.53 382.615 1968.7 386.982 1965.85C391.749 1962.72 399.081 1963.53 403.163 1967.5C411.757 1975.88 419.063 1987.95 427.607 1996.65C428.626 1998.22 429.465 2002.58 429.318 2004.43L429.304 2004.43ZM393.751 1979.67L380.154 1991.08C378.821 1992.2 376.681 1998.08 376.507 1999.99C375.311 2013.33 391.761 2021.81 401.612 2013.54L413.103 2003.9C413.961 2003.18 412.739 2002.3 412.552 2002.08L393.751 1979.67Z" fill="black"/>
<path d="M290.421 2045.02C280.325 2053.49 265.264 2052.17 256.792 2042.08C248.32 2031.98 249.638 2016.92 259.734 2008.45C269.831 1999.98 284.891 2001.29 293.363 2011.39C301.835 2021.49 300.517 2036.55 290.421 2045.02ZM280.747 2033.49C284.47 2030.37 284.956 2024.81 281.832 2021.09C278.708 2017.37 273.157 2016.88 269.434 2020.01C265.711 2023.13 265.225 2028.68 268.349 2032.4C271.473 2036.13 277.024 2036.61 280.747 2033.49Z" fill="black"/>
<path d="M369.743 2102.45C359.654 2110.91 344.608 2109.6 336.142 2099.51C327.677 2089.42 328.993 2074.37 339.082 2065.91C349.171 2057.44 364.217 2058.76 372.683 2068.85C381.148 2078.93 379.832 2093.98 369.743 2102.45ZM360.06 2090.94C363.783 2087.81 364.277 2082.26 361.146 2078.53C358.016 2074.8 352.465 2074.31 348.734 2077.44C345.004 2080.57 344.518 2086.12 347.648 2089.85C350.779 2093.58 356.33 2094.07 360.06 2090.94Z" fill="black"/>
<path d="M464.969 2039.84C467.954 2041.98 469.594 2045.71 467.98 2049.15C466.365 2052.6 457.227 2060.17 453.828 2061.71C446.274 2065.13 440.039 2055.84 445.333 2050.01C447.437 2047.7 454.862 2041.45 457.518 2039.89C459.374 2038.8 463.219 2038.58 464.976 2039.83L464.969 2039.84Z" fill="black"/>
<path d="M362.438 1917.65C366.103 1920.54 367.112 1925.4 363.868 1928.97C361.763 1931.28 354.339 1937.52 351.682 1939.09C345.703 1942.6 338.306 1936.04 341.221 1929.82C342.741 1926.56 351.331 1919.41 354.632 1917.62C357.002 1916.33 360.154 1915.84 362.438 1917.65Z" fill="black"/>
<path d="M506.373 1846.49C508.083 1847.95 511.556 1852.08 512.815 1853.98C517.344 1860.79 509.893 1868.64 503.333 1865.01C500.7 1863.55 495.258 1857.03 494.423 1854.15C492.391 1847.2 500.969 1841.89 506.379 1846.5L506.373 1846.49Z" fill="black"/>
</g>
<g clip-path="url(#clip3_145_4)">
<path d="M569.321 1286C575.606 1300.48 568.95 1312.15 556.384 1320.37C564.79 1326.59 573.347 1336.2 579.499 1344.74C591.22 1361.03 587.423 1373.6 571.335 1384.84C579.535 1393.17 589.512 1403.35 596.247 1412.93C603.961 1423.91 601.817 1437.53 590.866 1445.47C593.364 1446.86 595.986 1448.37 597.847 1450.63C601.463 1455.05 614.435 1477.48 616.304 1482.82C619.781 1492.72 615.243 1504.11 606.196 1509.43L492.236 1577.67C493.505 1584.73 490.787 1592.6 485.675 1597.73C477.063 1606.35 453.56 1615.62 441.665 1621.45C389.401 1647.09 336.488 1671.56 283.907 1696.53C266.959 1701.45 250.484 1697.39 236.886 1686.34L92.9019 1514.74C84.3751 1499.43 83.237 1482.5 91.032 1466.67L168.672 1357.7C175.537 1350.38 185.473 1358.1 180.429 1366.59L121.494 1449.1L306.038 1669.28L470.67 1590.75C481.275 1585.47 476.186 1567.94 474.387 1558.4C470.358 1537.11 463.603 1509.75 456.432 1489.4C449.262 1469.05 449.467 1476.93 432.658 1481C369.72 1496.24 303.85 1418.03 328.853 1358.28C330.889 1353.43 339.342 1342.97 335.832 1339.11C312.539 1326.1 288.656 1313.26 263.581 1304.06C257.604 1301.87 238.084 1294.34 232.971 1296.96C230.957 1297.99 228.54 1300.14 226.981 1301.81C218.296 1311.19 211.057 1327 202.166 1336.54C195.132 1344.08 188.174 1342.96 187.417 1332.23L216.448 1290.94C223.894 1283.15 233.67 1278.42 244.256 1282.12L331.244 1181.74C338.891 1173.12 350.779 1171.19 360.552 1177.28C365.714 1180.51 383.842 1195.68 387.701 1200.17C389.615 1202.39 390.644 1205.24 391.571 1207.94C401.287 1198.55 415.085 1198.8 424.554 1208.3C432.821 1216.59 441.112 1228.19 447.888 1237.71C462.44 1223.27 475.188 1222.45 489.441 1237.38C496.573 1244.86 504.298 1254.4 508.787 1263.63C519.072 1252.67 531.712 1248.15 544.877 1256.85L569.303 1285.96L569.321 1286ZM559.797 1297.91L531.514 1264.2L344.522 1421.11L372.805 1454.81L559.797 1297.91ZM341.047 1404.44L494.639 1275.56C494.808 1275.42 495.678 1271.48 495.637 1271.21C495.183 1268.37 477.971 1248 474.63 1244.65C471.726 1241.74 470.474 1240.79 466.339 1242.23L352.134 1337.6C352.884 1348.17 346.695 1354.9 343.027 1363.8C337.64 1376.86 338.198 1390.84 341.047 1404.44ZM542.206 1332.25L388.614 1461.13C403.642 1467.43 417.448 1469.14 433.33 1465.2C437.111 1464.26 440.472 1462.1 444.315 1461.35C448.799 1460.47 452.174 1461.97 456.368 1461.82L570.123 1365.91C570.553 1364.73 571.667 1362.79 571.472 1361.61C570.952 1358.54 549.52 1333.02 546.654 1332.03C546.378 1331.93 542.399 1332.15 542.198 1332.26L542.206 1332.25ZM404.685 1216.59L300.886 1303.69L344.121 1324.94L433.099 1249.6C434.452 1247.04 434.424 1244.27 432.918 1241.77C429.812 1236.62 418.873 1223.98 414.368 1219.49C411.978 1217.11 408.072 1214.79 404.685 1216.59ZM480.866 1518.18L584.665 1431.08C587.193 1428.96 585.124 1423.4 583.485 1421.04C579.853 1415.82 569.297 1402.85 564.767 1398.9C562.571 1396.99 559.847 1396.48 557.093 1397.37L467.446 1471.91L480.866 1518.18ZM285.135 1297.11L372.884 1223.74C376.446 1220.75 379.963 1214.96 376.768 1210.59C375.182 1208.43 355.031 1191.47 352.372 1189.98C348.595 1187.87 345.048 1188.58 342.292 1191.94L260.518 1286.66L285.143 1297.1L285.135 1297.11ZM490.608 1560.9L600.28 1494.94C602.202 1492.69 602.718 1490.04 601.771 1487.23C600.824 1484.42 587.498 1461.49 585.71 1459.63C582.302 1456.06 576.336 1458.21 572.844 1460.57L484.853 1534.35L490.594 1560.9L490.608 1560.9ZM292.419 1676.3L112.439 1461.81C100.809 1475.07 96.4111 1491.26 106.153 1507.04L244.842 1672.56C258.912 1687.06 275.989 1686.1 292.426 1676.31L292.419 1676.3Z" fill="black"/>
<path d="M265.45 1484.39C268.806 1487.97 265.423 1501.49 273.159 1510.35C280.255 1518.48 293.964 1517.97 296.747 1521.69C301.38 1527.88 295.335 1534.1 288.211 1533.67C278.178 1533.05 265.956 1525.66 259.982 1517.68C254.441 1510.27 246.368 1487.33 257.924 1482.3C259.998 1481.39 263.949 1482.8 265.45 1484.39Z" fill="black"/>
<path d="M240.351 1432.46C242.389 1434.16 243.504 1438.54 242.376 1440.88C241.388 1442.93 229.508 1452.88 227.041 1454.14C222.939 1456.24 218.992 1453.25 217.445 1449.35C214.751 1442.58 232.829 1426.19 240.359 1432.46L240.351 1432.46Z" fill="black"/>
<path d="M341.912 1553.5C350.449 1560.58 334.814 1573.7 327.869 1575.44C320.923 1577.18 315.557 1569.31 321.087 1563.47C325.303 1559 335.91 1548.51 341.926 1553.5L341.912 1553.5Z" fill="black"/>
</g>
<path d="M617 824.5C615.34 826.67 615.89 830.46 615.37 833.12C612.29 848.8 600.85 859.53 599.51 876.26C597.72 898.56 609.38 907.04 613.35 925.9C618.04 948.16 611.41 972.03 595.53 988.28C585.41 998.63 572.13 1002.73 564.09 1015.84C550.74 1037.61 560.62 1060.48 541.52 1081.26C519.6 1105.12 483.4 1107.47 459.23 1085.51L120.49 746.76C110.81 735.78 108.51 727.86 105.99 713.76C105.83 712.89 105.93 712.01 105 711.5V704.5C106.61 700.55 106.54 696.02 107.64 691.89C112.25 674.72 126.31 659.59 143.11 653.86C158.78 648.52 172.41 652.62 188.14 643.39C203.95 634.12 207.95 619 220.98 607.73C240.72 590.66 268.85 586.83 292.83 596.89C307.84 603.18 312.7 607.9 330.75 606.5C343.33 605.53 351.07 598.62 362.14 594.89C382.98 587.87 407.45 591.37 425.1 604.49C442.75 617.61 445.93 638.58 470.36 647.35C481.71 651.43 492.61 649.81 504.09 652.62C529.09 658.74 549.73 680.47 554.36 705.85C556.2 715.93 555.05 725.04 558.47 735.24C566.87 760.28 590.16 763.24 604.19 782.02C611.07 791.23 614.31 800.44 615.98 811.73C616.11 812.62 615.74 813.61 616.99 813.98V824.48L617 824.5ZM530.28 1072.29C544.84 1055.11 538.73 1038.87 546.26 1019.5C554.2 999.07 563.98 995.25 579.74 982.98C594.71 971.33 602.63 951.65 599.94 932.8C598.07 919.71 590.19 910.48 587.14 898.1C584.49 887.34 584.27 876.29 586.74 865.49C591.36 845.27 605.31 836.63 601.86 812.88C597.3 781.51 572.2 779.7 555.51 758.73C541.6 741.25 543.4 730.76 540.44 710.3C537.09 687.22 517.62 668.57 494.68 665.56C473.69 662.8 461.43 663.24 444.27 648.47C433.88 639.53 429.32 627.07 419.01 618.23C403.69 605.09 382.15 602.14 363.52 609.75C346.35 616.77 339.75 622.45 319.24 621.01C294.38 619.26 283.03 601.21 254.88 606.62C224.43 612.46 222.37 636.11 201.74 651.48C194.08 657.18 183.93 661.94 174.52 663.76C168.07 665.01 161.67 664.59 155.31 665.55C127.2 669.79 111.89 701.4 124.06 726.68C128.77 736.45 141.09 746.94 149.01 754.73C150.86 756.55 152.61 758.83 154.81 760.46C155.82 760.64 161.37 752.31 162.52 750.89C173.5 737.41 192.07 718.51 206.87 709.51C210.62 707.23 214.96 706.16 218 710.24C224.1 718.43 211.47 723.88 206.27 728.01C193.65 738.05 180.07 750.87 170.52 763.88C169.45 765.33 165.6 770.59 166.23 771.97L434.49 1040.26C435.82 1040.86 451.12 1028.23 453.1 1026.47C488 995.4 508.57 956.25 516.42 910.17C517.44 904.16 516.28 893.46 524.48 892.73C530.79 892.17 532.27 897.7 532 902.75C529.17 956.09 494.66 1011.57 454.11 1044.48C452.57 1045.73 445.48 1050.11 445.5 1051.75C461.76 1065.22 472.24 1085.1 495.76 1086.5C507.53 1087.2 522.64 1081.32 530.28 1072.3V1072.29Z" fill="black"/>
<path d="M478.29 762.71C427.53 696.97 339.3 670.57 260.24 698.49C255.37 700.21 242.46 706.77 238.77 707.03C231.34 707.55 228.17 698.77 233.24 694.49C236.49 691.75 250.23 686.77 254.86 685.11C351.61 650.65 458.94 692.1 507.75 781.48C520.75 805.29 531.06 837.54 532.48 864.75C532.83 871.43 532.68 879.32 523.35 877.38C517.09 876.08 518.53 867.87 517.98 863.25C513.49 825.67 501.42 792.68 478.28 762.71H478.29Z" fill="black"/>
<path d="M365.71 843.28C358.9 837.7 353.68 825.18 355.64 816.39C357.17 809.53 368.4 810.16 369.47 816.78C370.54 823.4 369.42 827.24 374.99 832.26C379.74 836.53 383.11 835.72 388.7 836.55C396.3 837.67 396.36 848.26 390.1 850.37C382.65 852.88 371.49 848.04 365.7 843.29L365.71 843.28Z" fill="black"/>
<path d="M511.38 699.86C511.8 701.92 511.37 704.22 510.22 705.97C509.01 707.82 494.85 721.95 492.96 723.21C486.08 727.8 477.97 720.1 483.28 712.53C484.98 710.1 497.11 697.98 499.53 696.28C503.83 693.27 510.26 694.35 511.38 699.86Z" fill="black"/>
<path d="M167.32 721.33C164.94 725.23 159.94 725.42 156.49 722.77C153.97 720.83 141.02 707.99 139.59 705.67C135.29 698.72 143.32 690.69 151.01 696.75C154 699.11 164.68 709.62 166.72 712.54C168.76 715.46 169.22 718.23 167.32 721.33Z" fill="black"/>
<path d="M498.68 1065.32C496.17 1063.07 483.85 1050.77 482.63 1048.62C480.42 1044.71 481.81 1039.88 486.01 1038.25C489.55 1036.87 491.39 1037.81 494.24 1040.01C497.65 1042.64 505.99 1051.08 508.76 1054.49C516.26 1063.75 506.16 1072 498.68 1065.32Z" fill="black"/>
<path d="M575.33 951.83C573.9 953.24 570.87 954.08 568.89 953.86C564.99 953.42 547.08 948.55 544.13 946.66C538.51 943.07 541.62 933.59 549.77 933.98C553.46 934.16 568.84 938.58 572.65 940.11C577.27 941.97 578.8 948.41 575.34 951.84L575.33 951.83Z" fill="black"/>
<path d="M390.34 662.34C386.29 667.1 377.23 663.89 377.47 657.26L384.55 631.91C388.73 626.69 397.54 628.73 397.82 635.82C397.93 638.66 394.38 650.62 393.35 654.1C392.71 656.28 391.7 660.73 390.33 662.34H390.34Z" fill="black"/>
<path d="M575.33 820.33C574.72 820.99 573.02 822.04 572.13 822.38C568.57 823.74 552.5 828.19 549.19 828.33C541.15 828.66 538.32 818.01 545.81 814.56C552.58 811.45 563.01 810.49 570.27 808.09C576.34 808.59 579.49 815.84 575.33 820.33Z" fill="black"/>
<path d="M259.66 662.35C259.03 661.6 258.22 659.42 257.86 658.4C256.6 654.82 252.11 639.3 252.11 636.26C252.1 628.13 263.09 626.07 266.11 633.66C268.9 640.66 269.85 649.99 272.42 657.26C272.45 663.79 263.84 667.31 259.67 662.36L259.66 662.35Z" fill="black"/>
<path d="M341.29 780.3C339.78 782.3 331.19 790.46 329.14 790.88C323.95 791.96 318.78 787.42 320.34 782.08C320.61 781.16 321.88 779.05 322.5 778.25C323.75 776.62 329.65 770.81 331.31 769.59C334.8 767.03 338.66 766.43 341.76 769.99C344.86 773.55 343.81 776.96 341.28 780.31L341.29 780.3Z" fill="black"/>
<path d="M438.38 867.86C438.89 870.33 438.12 872.46 436.72 874.47C435.32 876.48 426.76 884.79 424.73 885.47C418.24 887.64 412.78 881.18 415.91 875.15C416.56 873.9 425.68 864.69 427.04 863.78C431.05 861.11 437.35 862.82 438.39 867.86H438.38Z" fill="black"/>
<g clip-path="url(#clip4_145_4)">
<path d="M435.5 0C436.87 1.33 438.9 0.83 440.61 1.14C453 3.37 463.67 8.6 473.81 15.85C518.86 7.7 560.55 33.1 568.86 78.89C570.22 86.39 570.2 94.04 570.24 101.51C593.01 110.21 609.3 129.26 614.74 153C615.63 156.87 615.7 160.9 616.99 164.5V181C615.68 184.71 615.69 188.78 614.85 192.61C609.39 217.51 588.78 244.49 573.89 265.15C513.84 348.47 438.18 422.61 353.44 480.7C334.47 493.7 315.05 507.57 291.68 510.94C289.8 511.21 287.55 510.52 285.99 512H269.49C266.95 510.68 263.75 510.93 260.89 510.35C235.67 505.24 215.79 489.39 206.5 465.25C204.6 464.47 202.7 465.54 200.74 465.55C147.09 465.66 111.2 420.89 120.71 368.44C113.45 358.65 108.27 347.72 106.12 335.61C105.82 333.9 106.31 331.87 104.98 330.5V314C106.27 310.58 106.36 306.67 107.23 303C116.66 262.89 145.33 251.36 175.44 229.71C235.84 186.28 291.24 130.85 334.69 70.46C356.35 40.36 367.88 11.68 407.98 2.25C411.65 1.39 415.56 1.29 418.98 0H435.48L435.5 0ZM453.5 21.99C453.7 20.81 452.77 20.67 452 20.25C439.61 13.53 420.05 14.07 406.9 18.14C375.55 27.82 364.53 54.65 346.92 79.16C302.14 141.45 246.45 197.13 184.17 241.91C159.54 259.62 132.59 270.68 123.04 302.28C119.25 314.83 118.53 335.77 125.41 347.35C125.81 348.03 126 348.7 127 348.5C133.96 330.76 146.49 316.15 161.85 305.09C173.98 296.36 186.97 288.63 199.16 279.9C271.89 227.86 335.27 163.73 387.24 90.98C393.74 85.27 402.79 92.71 398.92 100.16C346.41 174.05 281.87 239.13 208.16 291.9C178.26 313.3 147.24 325.68 137.04 364.78C125.2 410.19 152.02 448.79 199.27 449.97C200.2 449.99 201.14 450.48 201.8 450.47C204.03 450.43 202.1 444.49 202.01 442.74C200.55 414.98 213.01 387.43 233.9 369.52C236.43 367.36 246.6 359.52 249.27 359.01C252.94 358.32 256.59 359.63 258.1 363.14C261.56 371.19 252.51 373.98 247.54 377.78C204.41 410.78 204.81 484.89 264.88 495.85C302.14 502.65 332.85 477.33 361.15 456.89C437.49 401.77 506.55 332.76 561.7 256.44C575.84 236.87 596.65 209.85 600.86 186.1C608.54 142.81 579.16 107.17 534.31 112.55C491.3 117.7 478.2 151.28 455.91 182.15C414.27 239.79 363.62 292.15 307.45 335.69C300.23 341.28 291.26 348.7 283.66 353.4C280.38 355.43 278 357.2 273.97 355.27C269.23 353 268.86 347.09 271.99 343.23C340.35 294.81 400.39 234.91 448.7 166.44C459.98 150.45 469.92 131.17 484.89 118.51C501.9 104.13 524.86 95.87 547.24 96.99C548.66 97.06 554.61 98.49 555.27 97.51C556.18 63.83 535.44 34.93 501.18 30.04C464.29 24.78 431.89 45.93 414.47 77.21C409.35 81.13 402.08 78.38 401.95 71.73C401.88 68.19 407.81 60.02 410.08 56.82C420.97 41.47 435.89 28.92 453.49 21.97L453.5 21.99Z" fill="black"/>
<path d="M218.72 320.71C222.02 317.15 226.94 313.36 231.17 310.92C250.32 299.84 270.33 306.99 285.5 286.75C301.07 265.97 294.55 243.06 316.75 223C341.73 200.42 378.41 211.83 392.89 173.14C395.96 164.94 396.74 156.27 399.16 147.91C405.22 126.96 421.19 109.3 441.91 102.16C446.95 100.42 459.23 97.12 464.15 98.13C471.03 99.54 471.42 110.92 463.15 112.9C446.28 116.94 435.53 117.83 423.81 132.56C405.78 155.22 414.77 182.31 389.27 204.52C363.77 226.73 325.48 215.84 313.25 256.5C307.42 275.86 305.33 290.56 289.01 304.76C266.8 324.1 238.58 311.26 222.74 340.49C219.23 346.98 219.1 351.4 217.27 358.02C214.87 366.75 203.18 365.41 202.49 357.24C201.55 346.14 211.33 328.67 218.71 320.7L218.72 320.71Z" fill="black"/>
<path d="M423.36 290.12C435.69 287.56 433.73 302.85 430.88 310.13C426.38 321.65 413.13 329.71 400.73 328.02C394.87 327.22 392.71 318.4 397.53 314.78C400.89 312.26 403.66 313.52 407.13 312.88C410.91 312.19 415.4 308.15 416.89 304.64C418.82 300.06 416.68 291.51 423.37 290.12H423.36Z" fill="black"/>
<path d="M359.86 337.62C362.4 337.16 364.4 337.84 366.46 339.28C368.33 340.59 375.45 347.93 376.4 349.84C379.75 356.59 373.15 363.5 366.34 359.9C364.16 358.74 355.48 350.29 354.57 348.17C352.67 343.74 355.02 338.5 359.86 337.62Z" fill="black"/>
<path d="M448.37 249.12C450.7 248.74 452.04 248.99 453.97 250.28C455.29 251.16 464.2 260.09 464.93 261.32C468.69 267.73 461.42 275.05 454.74 271.51C452.88 270.53 444.46 262.09 443.49 260.26C441.15 255.84 443.27 249.95 448.37 249.12Z" fill="black"/>
</g>
</g>
<use xlink:href="#pattern0_145_4_inner" transform="translate(721.722 1812.83)"/>
</pattern><clipPath id="clip0_145_4">
<rect width="512" height="512" fill="white" transform="translate(392.554 2904.34) rotate(50)"/>
</clipPath>
<clipPath id="clip1_145_4">
<rect width="512" height="512" fill="white" transform="translate(392.215 2288) rotate(50)"/>
</clipPath>
<clipPath id="clip2_145_4">
<rect width="512" height="512.16" fill="white" transform="translate(392.615 1665.37) rotate(50)"/>
</clipPath>
<clipPath id="clip3_145_4">
<rect width="512" height="512" fill="white" transform="translate(392.554 1075.34) rotate(50)"/>
</clipPath>
<clipPath id="clip4_145_4">
<rect width="512" height="512" fill="white" transform="translate(105)"/>
</clipPath>
</defs>
</svg>
